<svg width="30" height="30" viewBox="0 0 30 30" fill="none" xmlns="http://www.w3.org/2000/svg">
<g id="ph:check">
<path id="Vector" d="M26.9133 9.10075L11.9133 24.1008C11.8262 24.1879 11.7229 24.2571 11.609 24.3042C11.4952 24.3514 11.3732 24.3757 11.25 24.3757C11.1268 24.3757 11.0048 24.3514 10.891 24.3042C10.7772 24.2571 10.6738 24.1879 10.5868 24.1008L4.02425 17.5383C3.84834 17.3623 3.74951 17.1238 3.74951 16.875C3.74951 16.6262 3.84834 16.3876 4.02425 16.2117C4.20016 16.0358 4.43875 15.9369 4.68753 15.9369C4.93631 15.9369 5.1749 16.0358 5.35081 16.2117L11.25 22.1121L25.5868 7.77419C25.7627 7.59828 26.0013 7.49945 26.25 7.49945C26.4988 7.49945 26.7374 7.59828 26.9133 7.77419C27.0892 7.9501 27.1881 8.18869 27.1881 8.43747C27.1881 8.68625 27.0892 8.92484 26.9133 9.10075Z" fill="#4081FF"/>
</g>
</svg>
