<svg width="190" height="172" viewBox="0 0 190 172" fill="none" xmlns="http://www.w3.org/2000/svg">
<path d="M95 64.8359C87.2683 64.8359 80.5273 71.6353 80.5273 80.625C80.5273 89.6147 87.2683 96.4141 95 96.4141C102.732 96.4141 109.473 89.6147 109.473 80.625C109.473 71.6353 102.732 64.8359 95 64.8359ZM74.1616 84.3354C62.5623 87.2111 56.6326 95.7634 51.1631 104.979C44.738 115.928 40.7261 128.848 37.7703 139.414H33.0273V120.938H26.3477V139.414H20.4102V126.312H13.7305V139.414H7.42188V145.461H13.7305V158.562H20.4102V145.461H26.3477V163.938H33.0273V145.461H64.4189C66.4328 149.828 68.8379 154.195 71.25 158.562L53.4375 160.578V165.617H80.4494L75.8664 145.461H114.134L109.551 165.617H136.562V160.578L118.75 158.562C121.162 154.195 123.567 149.828 125.581 145.461H156.973V163.938H163.652V145.461H169.59V158.562H176.27V145.461H182.578V139.414H176.27V126.312H169.59V139.414H163.652V120.938H156.973V139.414H152.23C149.274 128.844 145.247 115.893 138.553 104.904C132.98 95.7566 127.555 87.5947 115.799 84.5655C114.016 94.5684 105.585 102.461 95 102.461C84.3337 102.461 75.8542 94.4468 74.1616 84.3354ZM72.8227 100.59L76.5485 117.467C65.3125 120.938 59.375 120.938 59.375 126.312C59.375 130.68 60.3547 135.047 61.917 139.414H50.0301C52.8489 129.69 56.5751 118.669 61.6491 110.022C64.9919 105.142 68.1543 103.711 72.8227 100.59ZM117.094 101.043C121.295 103.816 124.876 104.715 128.154 110.096C133.4 118.707 137.147 129.698 139.968 139.414H128.083C129.645 135.047 130.625 130.68 130.625 126.312C130.625 120.938 124.688 120.938 113.451 117.467L117.094 101.043ZM95 126.312C103.517 126.312 117.266 131.688 117.266 131.688L115.509 139.414H74.4911L72.7344 131.688C72.7344 131.688 86.4834 126.312 95 126.312Z" fill="black"/>
</svg>
