<svg width="190" height="172" viewBox="0 0 190 172" fill="none" xmlns="http://www.w3.org/2000/svg">
<path d="M28.7568 6.20047L22.1788 7.25095L25.6389 25.0173C23.6829 25.2931 21.7285 25.5775 19.7756 25.8706L17.3624 13.4779L10.7844 14.5274L13.1928 26.8882C11.0639 27.2277 8.93673 27.5762 6.81142 27.9336L8.03306 33.8784C10.1587 33.5203 12.2624 33.1763 14.352 32.8423L16.9705 46.2866L23.5489 45.2371L20.9364 31.8231C22.9046 31.5275 24.8588 31.2436 26.7989 30.9698L30.4271 49.5976L37.0055 48.5474L33.407 30.0742C36.5179 29.6704 39.6327 29.2919 42.7511 28.9387C48.5179 44.5229 55.627 62.5308 67.5906 74.1049C70.827 84.3177 71.25 90.0313 79.6219 104.141C71.25 116.906 65.3125 138.406 62.0506 158.227L44.2381 160.242V165.281H71.25C77.1875 149.156 95 116.906 95 116.906C95 116.906 112.812 149.156 118.75 165.281H145.762V160.242L127.949 158.227C124.687 138.406 118.75 116.906 109.102 104.141C118.75 90.0313 118.073 84.1239 122.398 74.1156C134.366 62.5419 141.479 44.5279 147.249 28.9394C150.334 29.2888 153.445 29.665 156.593 30.0749L152.995 48.5481L159.574 49.5976L163.202 30.9698C165.143 31.2436 167.096 31.5275 169.065 31.8231L166.452 45.2371L173.03 46.2869L175.649 32.8427C177.738 33.1763 179.842 33.5203 181.968 33.8784L183.189 27.9336C181.044 27.5725 178.919 27.2248 176.808 26.8878L179.217 14.5267L172.638 13.4769L170.225 25.8696C168.272 25.5761 166.318 25.2917 164.362 25.0163L167.822 7.24994L161.244 6.19946L157.753 24.1217C135.814 21.2683 115.403 19.8338 95 19.8338C74.5973 19.8338 54.186 21.2683 32.2473 24.1227L28.7568 6.20047ZM95 25.8605C108.185 25.8605 121.374 26.4753 135.012 27.6958C129.786 39.4059 120.742 52.3885 111.558 61.9503C107.726 66.9423 101.81 70.211 95 70.211C88.1904 70.211 82.2737 66.9423 78.4418 61.9503C69.258 52.3885 60.2137 39.4055 54.9879 27.6958C68.6256 26.4753 81.8143 25.8605 95 25.8605ZM95 32.586C87.2683 32.586 80.5273 39.3854 80.5273 48.3751C80.5273 57.3648 87.2683 64.1641 95 64.1641C102.732 64.1641 109.473 57.3648 109.473 48.3751C109.473 39.3854 102.732 32.586 95 32.586Z" fill="black"/>
</svg>
