<svg xmlns="http://www.w3.org/2000/svg" xmlns:xlink="http://www.w3.org/1999/xlink" width="500" zoomAndPan="magnify" viewBox="0 0 375 374.999991" height="500" preserveAspectRatio="xMidYMid meet" version="1.0"><defs><clipPath id="cce0880aa5"><path d="M 236 294 L 304 294 L 304 361.753906 L 236 361.753906 Z M 236 294 " clip-rule="nonzero"/></clipPath><clipPath id="4469b96ff7"><path d="M 71 294 L 139 294 L 139 361.753906 L 71 361.753906 Z M 71 294 " clip-rule="nonzero"/></clipPath><clipPath id="25b50c9dec"><path d="M 8.757812 116 L 76 116 L 76 183 L 8.757812 183 Z M 8.757812 116 " clip-rule="nonzero"/></clipPath><clipPath id="89c86912c5"><path d="M 299 116 L 366.507812 116 L 366.507812 183 L 299 183 Z M 299 116 " clip-rule="nonzero"/></clipPath><clipPath id="d9cb86df79"><path d="M 153 13.003906 L 221 13.003906 L 221 80 L 153 80 Z M 153 13.003906 " clip-rule="nonzero"/></clipPath></defs><rect x="-37.5" width="450" fill="#ffffff" y="-37.499999" height="449.999989" fill-opacity="1"/><rect x="-37.5" width="450" fill="#ffffff" y="-37.499999" height="449.999989" fill-opacity="1"/><rect x="-37.5" width="450" fill="#ffffff" y="-37.499999" height="449.999989" fill-opacity="1"/><path fill="#40bfbc" d="M 132.238281 183.15625 C 126.808594 197.902344 121.050781 212.554688 116.472656 227.597656 C 113.867188 236.148438 111.601562 244.851562 110.394531 253.71875 C 109.265625 262 108.84375 271.085938 111.84375 279.042969 C 113.875 284.441406 117.421875 289.0625 121.972656 292.59375 C 128.335938 297.523438 135.886719 301.5625 143.996094 302.410156 C 152.53125 303.304688 160.925781 300.410156 168.390625 296.527344 C 176.171875 292.476562 183.285156 287.261719 190.066406 281.734375 C 201.898438 272.085938 212.746094 261.296875 223.664062 250.644531 C 223.808594 250.503906 224.199219 249.953125 224.414062 250.046875 C 224.714844 250.183594 224.929688 250.160156 224.90625 250.488281 C 224.871094 251.109375 224.808594 251.726562 224.738281 252.339844 C 224.300781 256.324219 223.519531 260.253906 222.601562 264.148438 C 220.792969 271.824219 218.160156 279.328125 214.941406 286.53125 C 208.066406 301.890625 198.136719 316.273438 184.902344 326.835938 C 178.183594 332.203125 170.546875 336.667969 162.332031 339.308594 C 153.808594 342.050781 144.867188 343.230469 135.929688 342.351562 C 127.363281 341.507812 119.035156 339.03125 111.339844 335.203125 C 103.851562 331.472656 96.628906 326.660156 90.746094 320.683594 C 85.917969 315.773438 81.75 310.355469 78.601562 304.203125 C 74.695312 296.5625 72.414062 288.152344 71.839844 279.589844 C 70.679688 262.28125 76.246094 245.183594 84.828125 230.324219 C 93.042969 216.113281 104.128906 203.449219 116.824219 193.070312 C 119.726562 190.703125 122.726562 188.464844 125.820312 186.359375 C 127.328125 185.335938 128.875 184.355469 130.453125 183.441406 C 130.847656 183.210938 131.25 182.984375 131.65625 182.765625 C 131.84375 182.667969 132.097656 183.035156 132.238281 183.15625 " fill-opacity="1" fill-rule="nonzero"/><path fill="#8ebf25" d="M 246.734375 182.722656 C 249.515625 184.171875 252.125 185.96875 254.6875 187.765625 C 257.847656 189.972656 260.894531 192.382812 263.824219 194.886719 C 270.160156 200.296875 276.027344 206.261719 281.328125 212.6875 C 291.980469 225.589844 300.613281 240.609375 304.566406 256.949219 C 306.59375 265.324219 307.367188 274.109375 306.351562 282.683594 C 305.339844 291.183594 302.710938 299.386719 298.453125 306.832031 C 290.832031 320.140625 278.269531 330.304688 264.359375 336.519531 C 256.488281 340.03125 247.964844 342.21875 239.328125 342.566406 C 230.417969 342.933594 221.519531 341.472656 213.199219 338.253906 C 197.03125 332 183.847656 319.785156 174.175781 305.628906 C 165.039062 292.242188 158.789062 277.09375 155.234375 261.3125 C 154.441406 257.792969 153.8125 254.171875 153.574219 250.566406 C 153.550781 250.199219 153.613281 250.25 153.96875 250.09375 C 154.171875 250 154.140625 249.988281 154.285156 250.128906 C 154.738281 250.578125 155.203125 251.027344 155.660156 251.476562 C 160.816406 256.5 165.957031 261.546875 171.203125 266.484375 C 177.53125 272.445312 183.988281 278.265625 190.804688 283.660156 C 197.667969 289.09375 204.9375 294.183594 212.890625 297.914062 C 220.546875 301.507812 229.105469 303.695312 237.546875 301.929688 C 241.554688 301.085938 245.300781 299.5625 248.878906 297.605469 C 252.226562 295.785156 255.570312 293.628906 258.359375 291.019531 C 260.125 289.371094 261.753906 287.671875 263.15625 285.691406 C 265.191406 282.824219 266.679688 279.570312 267.527344 276.15625 C 269.621094 267.753906 269.003906 258.96875 267.601562 250.5 C 264.738281 233.253906 258.648438 216.605469 252.597656 200.261719 C 251.277344 196.691406 249.945312 193.125 248.613281 189.558594 C 247.984375 187.882812 247.359375 186.203125 246.742188 184.515625 C 246.582031 184.09375 246.425781 183.667969 246.269531 183.242188 C 246.199219 183.046875 246.597656 182.84375 246.734375 182.722656 " fill-opacity="1" fill-rule="nonzero"/><path fill="#f89c22" d="M 189.109375 141.101562 C 191.347656 138.90625 193.871094 136.984375 196.371094 135.105469 C 199.453125 132.785156 202.6875 130.640625 205.972656 128.628906 C 213.023438 124.324219 220.445312 120.625 228.125 117.589844 C 243.859375 111.375 261.023438 107.765625 277.984375 109.140625 C 286.707031 109.84375 295.398438 111.914062 303.328125 115.648438 C 310.851562 119.195312 317.617188 124.117188 323.226562 130.265625 C 333.644531 141.675781 339.484375 156.894531 341.058594 172.144531 C 341.964844 180.894531 341.328125 189.84375 338.839844 198.308594 C 336.40625 206.589844 332.347656 214.316406 326.878906 221.011719 C 315.789062 234.597656 299.832031 243.394531 283.132812 248.167969 C 275.15625 250.445312 266.9375 251.875 258.667969 252.527344 C 250.746094 253.144531 242.871094 252.953125 234.964844 252.21875 C 231.550781 251.859375 228.074219 251.367188 224.746094 250.492188 C 224.597656 250.457031 224.519531 249.929688 224.585938 249.8125 L 224.847656 249.675781 C 225.488281 249.339844 226.132812 249.003906 226.773438 248.671875 C 233.28125 245.261719 239.792969 241.867188 246.238281 238.335938 C 253.859375 234.164062 261.382812 229.808594 268.609375 224.976562 C 275.804688 220.160156 282.804688 214.847656 288.703125 208.472656 C 294.398438 202.320312 298.988281 194.894531 299.832031 186.402344 C 300.285156 182.371094 299.914062 178.324219 299.152344 174.359375 C 298.441406 170.648438 297.414062 166.859375 295.800781 163.429688 C 294.757812 161.195312 293.582031 159.132812 292.117188 157.132812 C 290.03125 154.300781 287.28125 151.949219 284.308594 150.085938 C 277.171875 145.632812 268.765625 143.570312 260.535156 142.296875 C 243.171875 139.613281 225.355469 140.253906 207.867188 140.945312 C 204.0625 141.09375 200.265625 141.253906 196.464844 141.417969 C 194.644531 141.5 192.824219 141.574219 191.007812 141.644531 C 190.507812 141.660156 190.011719 141.679688 189.515625 141.703125 C 189.234375 141.710938 189.207031 141.332031 189.109375 141.101562 " fill-opacity="1" fill-rule="nonzero"/><path fill="#2a3758" d="M 189.105469 141.707031 C 173.378906 141.105469 157.644531 140.167969 141.894531 140.464844 C 132.921875 140.636719 123.914062 141.175781 115.074219 142.777344 C 110.890625 143.539062 106.738281 144.535156 102.738281 145.988281 C 98.914062 147.386719 95.089844 149.152344 91.863281 151.660156 C 87.273438 155.234375 83.972656 159.921875 81.875 165.320312 C 78.988281 172.75 77.519531 181.328125 79.058594 189.21875 C 80.671875 197.523438 85.828125 204.597656 91.699219 210.480469 C 97.855469 216.632812 104.949219 221.800781 112.234375 226.53125 C 125.230469 234.96875 139.058594 242.050781 152.777344 249.226562 C 153.148438 249.421875 153.519531 249.617188 153.886719 249.808594 L 153.800781 250.472656 C 153.386719 250.582031 152.96875 250.679688 152.550781 250.773438 C 148.667969 251.636719 144.714844 252.109375 140.753906 252.476562 C 132.933594 253.203125 125 253.0625 117.179688 252.292969 C 100.191406 250.613281 83.152344 245.660156 68.773438 236.28125 C 61.585938 231.585938 54.902344 225.734375 49.84375 218.757812 C 44.726562 211.714844 40.917969 203.929688 38.871094 195.453125 C 36.808594 186.929688 36.523438 178.011719 37.761719 169.351562 C 38.960938 161.007812 41.292969 152.542969 45.183594 145.039062 C 48.359375 138.902344 52.222656 133.226562 57.117188 128.304688 C 62.953125 122.429688 69.945312 117.761719 77.589844 114.554688 C 93.957031 107.695312 112.378906 107.625 129.527344 111.261719 C 145.53125 114.652344 160.945312 121.21875 174.714844 130.003906 C 177.855469 132.019531 180.902344 134.164062 183.863281 136.4375 C 185.328125 137.566406 186.757812 138.746094 188.140625 139.972656 C 188.519531 140.308594 188.894531 140.648438 189.257812 140.996094 C 189.464844 141.191406 189.203125 141.472656 189.105469 141.707031 " fill-opacity="1" fill-rule="nonzero"/><path fill="#e63a33" d="M 246.160156 182.90625 C 241.863281 167.792969 237.902344 152.5625 232.753906 137.699219 C 229.867188 129.367188 226.625 121.109375 222.464844 113.320312 C 218.589844 106.054688 213.792969 98.8125 207.035156 93.917969 C 202.230469 90.441406 196.625 88.820312 190.773438 88.382812 C 186.894531 88.09375 182.890625 88.414062 179.054688 89.035156 C 175.109375 89.679688 171.265625 90.8125 167.695312 92.648438 C 160.308594 96.449219 155.0625 103.222656 151.214844 110.40625 C 147.09375 118.105469 144.273438 126.445312 141.960938 134.835938 C 137.773438 150.03125 135.257812 165.621094 132.609375 181.140625 C 132.515625 181.6875 132.417969 182.238281 132.324219 182.785156 C 132.296875 182.964844 132.03125 182.929688 131.875 182.960938 C 131.554688 183.03125 131.519531 182.785156 131.351562 182.507812 C 129.378906 179.296875 127.726562 175.863281 126.230469 172.402344 C 123.113281 165.183594 120.652344 157.699219 118.894531 150.03125 C 115.101562 133.527344 114.351562 115.964844 118.480469 99.453125 C 120.636719 90.855469 124.152344 82.652344 129.132812 75.308594 C 133.957031 68.207031 140.265625 62.148438 147.476562 57.503906 C 161.808594 48.273438 179.597656 45.160156 196.398438 46.960938 C 211.738281 48.613281 226.046875 56.03125 236.441406 67.359375 C 248.222656 80.214844 254.292969 97.378906 256.453125 114.441406 C 258.554688 130.972656 257.238281 147.988281 253.226562 164.140625 C 252.269531 167.996094 251.136719 171.820312 249.808594 175.574219 C 249.128906 177.496094 248.402344 179.402344 247.589844 181.277344 C 247.363281 181.796875 247.132812 182.324219 246.882812 182.835938 C 246.757812 183.089844 246.410156 182.929688 246.160156 182.90625 " fill-opacity="1" fill-rule="nonzero"/><path fill="#8ebf25" d="M 270.011719 358.863281 C 253.125 358.863281 239.386719 345.144531 239.386719 328.28125 C 239.386719 311.425781 253.125 297.703125 270.011719 297.703125 C 286.898438 297.703125 300.636719 311.425781 300.636719 328.28125 C 300.636719 345.144531 286.898438 358.863281 270.011719 358.863281 " fill-opacity="1" fill-rule="nonzero"/><g clip-path="url(#cce0880aa5)"><path fill="#ffffff" d="M 270.011719 294.800781 C 251.492188 294.800781 236.480469 309.792969 236.480469 328.28125 C 236.480469 346.773438 251.492188 361.765625 270.011719 361.765625 C 288.527344 361.765625 303.539062 346.773438 303.539062 328.28125 C 303.539062 309.792969 288.527344 294.800781 270.011719 294.800781 Z M 270.011719 300.601562 C 285.296875 300.601562 297.730469 313.019531 297.730469 328.28125 C 297.730469 343.546875 285.296875 355.964844 270.011719 355.964844 C 254.726562 355.964844 242.289062 343.546875 242.289062 328.28125 C 242.289062 313.019531 254.726562 300.601562 270.011719 300.601562 " fill-opacity="1" fill-rule="nonzero"/></g><path fill="#40bfbc" d="M 105.214844 358.863281 C 88.328125 358.863281 74.589844 345.144531 74.589844 328.28125 C 74.589844 311.425781 88.328125 297.703125 105.214844 297.703125 C 122.105469 297.703125 135.839844 311.425781 135.839844 328.28125 C 135.839844 345.144531 122.105469 358.863281 105.214844 358.863281 " fill-opacity="1" fill-rule="nonzero"/><g clip-path="url(#4469b96ff7)"><path fill="#ffffff" d="M 105.214844 294.800781 C 86.699219 294.800781 71.6875 309.792969 71.6875 328.28125 C 71.6875 346.773438 86.699219 361.765625 105.214844 361.765625 C 123.734375 361.765625 138.746094 346.773438 138.746094 328.28125 C 138.746094 309.792969 123.734375 294.800781 105.214844 294.800781 Z M 105.214844 300.601562 C 120.5 300.601562 132.9375 313.019531 132.9375 328.28125 C 132.9375 343.546875 120.5 355.964844 105.214844 355.964844 C 89.929688 355.964844 77.496094 343.546875 77.496094 328.28125 C 77.496094 313.019531 89.929688 300.601562 105.214844 300.601562 " fill-opacity="1" fill-rule="nonzero"/></g><path fill="#2a3758" d="M 42.464844 180.078125 C 25.578125 180.078125 11.839844 166.355469 11.839844 149.492188 C 11.839844 132.632812 25.578125 118.914062 42.464844 118.914062 C 59.351562 118.914062 73.089844 132.632812 73.089844 149.492188 C 73.089844 166.355469 59.351562 180.078125 42.464844 180.078125 " fill-opacity="1" fill-rule="nonzero"/><g clip-path="url(#25b50c9dec)"><path fill="#ffffff" d="M 42.464844 116.015625 C 23.945312 116.015625 8.933594 131.003906 8.933594 149.492188 C 8.933594 167.988281 23.945312 182.980469 42.464844 182.980469 C 60.980469 182.980469 75.992188 167.988281 75.992188 149.492188 C 75.992188 131.003906 60.980469 116.015625 42.464844 116.015625 Z M 42.464844 121.816406 C 57.75 121.816406 70.183594 134.230469 70.183594 149.492188 C 70.183594 164.761719 57.75 177.179688 42.464844 177.179688 C 27.179688 177.179688 14.742188 164.761719 14.742188 149.492188 C 14.742188 134.230469 27.179688 121.816406 42.464844 121.816406 " fill-opacity="1" fill-rule="nonzero"/></g><path fill="#f89c22" d="M 332.921875 180.078125 C 316.035156 180.078125 302.296875 166.355469 302.296875 149.492188 C 302.296875 132.632812 316.035156 118.914062 332.921875 118.914062 C 349.808594 118.914062 363.546875 132.632812 363.546875 149.492188 C 363.546875 166.355469 349.808594 180.078125 332.921875 180.078125 " fill-opacity="1" fill-rule="nonzero"/><g clip-path="url(#89c86912c5)"><path fill="#ffffff" d="M 332.921875 116.015625 C 314.402344 116.015625 299.394531 131.003906 299.394531 149.492188 C 299.394531 167.988281 314.402344 182.980469 332.921875 182.980469 C 351.4375 182.980469 366.453125 167.988281 366.453125 149.492188 C 366.453125 131.003906 351.4375 116.015625 332.921875 116.015625 Z M 332.921875 121.816406 C 348.207031 121.816406 360.644531 134.230469 360.644531 149.492188 C 360.644531 164.761719 348.207031 177.179688 332.921875 177.179688 C 317.632812 177.179688 305.203125 164.761719 305.203125 149.492188 C 305.203125 134.230469 317.632812 121.816406 332.921875 121.816406 " fill-opacity="1" fill-rule="nonzero"/></g><path fill="#e63a33" d="M 186.578125 77.054688 C 169.6875 77.054688 155.945312 63.335938 155.945312 46.472656 C 155.945312 29.609375 169.6875 15.890625 186.578125 15.890625 C 203.460938 15.890625 217.199219 29.609375 217.199219 46.472656 C 217.199219 63.335938 203.460938 77.054688 186.578125 77.054688 " fill-opacity="1" fill-rule="nonzero"/><g clip-path="url(#d9cb86df79)"><path fill="#ffffff" d="M 186.578125 12.992188 C 168.054688 12.992188 153.042969 27.980469 153.042969 46.472656 C 153.042969 64.96875 168.054688 79.953125 186.578125 79.953125 C 205.089844 79.953125 220.101562 64.96875 220.101562 46.472656 C 220.101562 27.980469 205.089844 12.992188 186.578125 12.992188 Z M 186.578125 18.792969 C 201.863281 18.792969 214.292969 31.210938 214.292969 46.472656 C 214.292969 61.734375 201.863281 74.152344 186.578125 74.152344 C 171.285156 74.152344 158.851562 61.734375 158.851562 46.472656 C 158.851562 31.210938 171.285156 18.792969 186.578125 18.792969 " fill-opacity="1" fill-rule="nonzero"/></g></svg>