<svg width="30" height="30" viewBox="0 0 30 30" fill="none" xmlns="http://www.w3.org/2000/svg">
<path d="M14.375 14.3263C14.375 13.9975 14.6712 13.75 15 13.75C15.3288 13.75 15.625 13.9975 15.625 14.3263V25.625C15.625 25.7908 15.5592 25.9497 15.4419 26.0669C15.3247 26.1842 15.1658 26.25 15 26.25C14.8342 26.25 14.6753 26.1842 14.5581 26.0669C14.4408 25.9497 14.375 25.7908 14.375 25.625V14.3263Z" fill="black"/>
<path fill-rule="evenodd" clip-rule="evenodd" d="M12.5 10C12.5001 9.44571 12.6843 8.90714 13.0236 8.46889C13.363 8.03064 13.8384 7.71753 14.375 7.57875V4.375C14.375 4.20924 14.4408 4.05027 14.5581 3.93306C14.6753 3.81585 14.8342 3.75 15 3.75C15.1658 3.75 15.3247 3.81585 15.4419 3.93306C15.5592 4.05027 15.625 4.20924 15.625 4.375V7.57875C16.2128 7.73233 16.7246 8.0946 17.0649 8.59792C17.4051 9.10124 17.5506 9.71119 17.474 10.3139C17.3975 10.9166 17.1042 11.4708 16.6489 11.8731C16.1937 12.2754 15.6075 12.4982 15 12.5C14.337 12.5 13.7011 12.2366 13.2322 11.7678C12.7634 11.2989 12.5 10.663 12.5 10ZM15 11.25C15.3315 11.25 15.6495 11.1183 15.8839 10.8839C16.1183 10.6495 16.25 10.3315 16.25 10C16.25 9.66848 16.1183 9.35054 15.8839 9.11612C15.6495 8.8817 15.3315 8.75 15 8.75C14.6685 8.75 14.3505 8.8817 14.1161 9.11612C13.8817 9.35054 13.75 9.66848 13.75 10C13.75 10.3315 13.8817 10.6495 14.1161 10.8839C14.3505 11.1183 14.6685 11.25 15 11.25ZM10 20C9.99989 20.4678 9.86854 20.9261 9.62088 21.323C9.37322 21.7198 9.0192 22.0392 8.59904 22.2449C8.17889 22.4505 7.70947 22.5341 7.24415 22.4863C6.77883 22.4384 6.33627 22.2609 5.96679 21.9741C5.59731 21.6872 5.31573 21.3024 5.15406 20.8634C4.99239 20.4245 4.95711 19.949 5.05225 19.491C5.14738 19.033 5.3691 18.6108 5.6922 18.2726C6.01531 17.9343 6.42684 17.6935 6.88 17.5775C6.87676 17.5518 6.87509 17.5259 6.875 17.5V4.375C6.875 4.20924 6.94085 4.05027 7.05806 3.93306C7.17527 3.81585 7.33424 3.75 7.5 3.75C7.66576 3.75 7.82473 3.81585 7.94194 3.93306C8.05915 4.05027 8.125 4.20924 8.125 4.375V17.5C8.125 17.5262 8.12313 17.5519 8.12 17.5775C8.65778 17.7154 9.13439 18.0283 9.47476 18.4669C9.81514 18.9055 9.99992 19.4448 10 20ZM8.75 20C8.75 20.3315 8.6183 20.6495 8.38388 20.8839C8.14946 21.1183 7.83152 21.25 7.5 21.25C7.16848 21.25 6.85054 21.1183 6.61612 20.8839C6.3817 20.6495 6.25 20.3315 6.25 20C6.25 19.6685 6.3817 19.3505 6.61612 19.1161C6.85054 18.8817 7.16848 18.75 7.5 18.75C7.83152 18.75 8.14946 18.8817 8.38388 19.1161C8.6183 19.3505 8.75 19.6685 8.75 20Z" fill="black"/>
<path d="M22.5 26.25C22.3342 26.25 22.1753 26.1842 22.0581 26.0669C21.9408 25.9497 21.875 25.7908 21.875 25.625V21.2013C21.875 20.8725 22.1712 20.625 22.5 20.625C22.8288 20.625 23.125 20.8725 23.125 21.2013V25.625C23.125 25.7908 23.0592 25.9497 22.9419 26.0669C22.8247 26.1842 22.6658 26.25 22.5 26.25Z" fill="black"/>
<path fill-rule="evenodd" clip-rule="evenodd" d="M22.5 3.75C22.3342 3.75 22.1753 3.81585 22.0581 3.93306C21.9408 4.05027 21.875 4.20924 21.875 4.375V14.4537C21.2872 14.6073 20.7754 14.9696 20.4351 15.4729C20.0949 15.9762 19.9494 16.5862 20.026 17.1889C20.1025 17.7916 20.3958 18.3458 20.8511 18.7481C21.3063 19.1504 21.8925 19.3732 22.5 19.375C23.1089 19.3756 23.6971 19.1539 24.1542 18.7516C24.6113 18.3493 24.9058 17.794 24.9826 17.19C25.0593 16.5859 24.9129 15.9746 24.5709 15.4708C24.2289 14.967 23.7147 14.6054 23.125 14.4537V4.375C23.125 4.20924 23.0592 4.05027 22.9419 3.93306C22.8247 3.81585 22.6658 3.75 22.5 3.75ZM22.5 15.625C22.1685 15.625 21.8505 15.7567 21.6161 15.9911C21.3817 16.2255 21.25 16.5435 21.25 16.875C21.25 17.2065 21.3817 17.5245 21.6161 17.7589C21.8505 17.9933 22.1685 18.125 22.5 18.125C22.8315 18.125 23.1495 17.9933 23.3839 17.7589C23.6183 17.5245 23.75 17.2065 23.75 16.875C23.75 16.5435 23.6183 16.2255 23.3839 15.9911C23.1495 15.7567 22.8315 15.625 22.5 15.625Z" fill="black"/>
<path d="M6.875 25.625C6.875 25.7908 6.94085 25.9497 7.05806 26.0669C7.17527 26.1842 7.33424 26.25 7.5 26.25C7.66576 26.25 7.82473 26.1842 7.94194 26.0669C8.05915 25.9497 8.125 25.7908 8.125 25.625V24.3263C8.125 23.9975 7.82875 23.75 7.5 23.75C7.17125 23.75 6.875 23.9975 6.875 24.3263V25.625Z" fill="black"/>
</svg>
